<?xml version="1.0" encoding="UTF-8"?>
<svg xmlns="http://www.w3.org/2000/svg" xmlns:xlink="http://www.w3.org/1999/xlink" width="30px" height="30px" viewBox="0 0 30 30" version="1.1">
<g id="surface1">
<path style=" stroke:none;fill-rule:nonzero;fill:rgb(0%,0%,0%);fill-opacity:1;" d="M 19.394531 16.71875 C 19.394531 19.152344 17.421875 21.125 14.988281 21.125 C 12.554688 21.125 10.582031 19.152344 10.582031 16.71875 C 10.582031 14.285156 12.554688 12.308594 14.988281 12.308594 C 17.421875 12.308594 19.394531 14.285156 19.394531 16.71875 Z M 19.394531 16.71875 "/>
<path style=" stroke:none;fill-rule:nonzero;fill:rgb(0%,0%,0%);fill-opacity:1;" d="M 27.949219 8.027344 L 20.667969 8.027344 L 20.449219 6.328125 C 20.449219 5.355469 19.664062 4.570312 18.691406 4.570312 L 11.191406 4.570312 C 10.21875 4.570312 9.433594 5.355469 9.433594 6.328125 L 9.214844 8.027344 L 1.992188 8.027344 C 1.34375 8.027344 0.820312 8.523438 0.820312 9.171875 L 0.820312 24.289062 C 0.820312 24.933594 1.34375 25.488281 1.992188 25.488281 L 27.949219 25.488281 C 28.597656 25.488281 29.121094 24.933594 29.121094 24.289062 L 29.121094 9.171875 C 29.121094 8.523438 28.597656 8.027344 27.949219 8.027344 Z M 14.976562 23.9375 C 10.996094 23.9375 7.769531 20.710938 7.769531 16.734375 C 7.769531 12.753906 10.996094 9.527344 14.976562 9.527344 C 18.957031 9.527344 22.183594 12.753906 22.183594 16.734375 C 22.183594 20.710938 18.957031 23.9375 14.976562 23.9375 Z M 27.773438 11.132812 L 21.621094 11.132812 L 21.621094 9.316406 L 27.773438 9.316406 Z M 27.773438 11.132812 "/>
</g>
</svg>
